<svg xmlns="http://www.w3.org/2000/svg" viewBox="0 0 363.44 266.68"><defs><style>.cls-1,.cls-3{fill:#fff;}.cls-2{fill:#412d85;}.cls-3{font-size:19px;font-family:Verdana-Bold, Verdana;font-weight:700;letter-spacing:-0.03em;}.cls-4{letter-spacing:-0.08em;}</style></defs><g id="Calque_2" data-name="Calque 2"><polygon class="cls-1" points="0 266.68 26.14 239.62 63.52 232.05 93.78 266.68 0 266.68"/><polygon class="cls-1" points="116.94 266.68 86.67 227.47 149.27 209.81 267.59 266.68 116.94 266.68"/><polygon class="cls-1" points="307.03 266.68 363.44 266.68 307.03 206.83 177.13 203.62 307.03 266.68"/><polygon class="cls-1" points="43.8 221.04 113.05 151.34 186.42 151.34 186.42 186.19 43.8 221.04"/><polygon class="cls-1" points="208.43 182.52 279.98 182.52 252 154.09 208.43 151.34 208.43 182.52"/></g><g id="Calque_6" data-name="Calque 6"><path class="cls-1" d="M234.2,321.88c0-1.57,45.55,73.13,45.55,73.13l48.93-78.88Z" transform="translate(-84.47 -249.41)"/></g><g id="Calque_5" data-name="Calque 5"><ellipse class="cls-1" cx="195.25" cy="49.87" rx="51.02" ry="49.87"/></g><g id="Calque_7" data-name="Calque 7"><circle class="cls-2" cx="194.73" cy="49.87" r="35.6"/><text class="cls-3" transform="translate(175.06 57.2)">GI<tspan class="cls-4" x="24.64" y="0">’S</tspan></text></g></svg>